<svg width="24" height="24" viewBox="0 0 24 24" fill="none" xmlns="http://www.w3.org/2000/svg">
<path d="M8 6C8 6.26522 8.10536 6.51957 8.29289 6.70711C8.48043 6.89464 8.73478 7 9 7C9.26522 7 9.51957 6.89464 9.70711 6.70711C9.89464 6.51957 10 6.26522 10 6C10 5.73478 9.89464 5.48043 9.70711 5.29289C9.51957 5.10536 9.26522 5 9 5C8.73478 5 8.48043 5.10536 8.29289 5.29289C8.10536 5.48043 8 5.73478 8 6Z" stroke="#7A7A7A" stroke-width="2" stroke-linecap="round" stroke-linejoin="round"/>
<path d="M8 12C8 12.2652 8.10536 12.5196 8.29289 12.7071C8.48043 12.8946 8.73478 13 9 13C9.26522 13 9.51957 12.8946 9.70711 12.7071C9.89464 12.5196 10 12.2652 10 12C10 11.7348 9.89464 11.4804 9.70711 11.2929C9.51957 11.1054 9.26522 11 9 11C8.73478 11 8.48043 11.1054 8.29289 11.2929C8.10536 11.4804 8 11.7348 8 12Z" stroke="#7A7A7A" stroke-width="2" stroke-linecap="round" stroke-linejoin="round"/>
<path d="M8 18C8 18.2652 8.10536 18.5196 8.29289 18.7071C8.48043 18.8946 8.73478 19 9 19C9.26522 19 9.51957 18.8946 9.70711 18.7071C9.89464 18.5196 10 18.2652 10 18C10 17.7348 9.89464 17.4804 9.70711 17.2929C9.51957 17.1054 9.26522 17 9 17C8.73478 17 8.48043 17.1054 8.29289 17.2929C8.10536 17.4804 8 17.7348 8 18Z" stroke="#7A7A7A" stroke-width="2" stroke-linecap="round" stroke-linejoin="round"/>
<path d="M14 6C14 6.26522 14.1054 6.51957 14.2929 6.70711C14.4804 6.89464 14.7348 7 15 7C15.2652 7 15.5196 6.89464 15.7071 6.70711C15.8946 6.51957 16 6.26522 16 6C16 5.73478 15.8946 5.48043 15.7071 5.29289C15.5196 5.10536 15.2652 5 15 5C14.7348 5 14.4804 5.10536 14.2929 5.29289C14.1054 5.48043 14 5.73478 14 6Z" stroke="#7A7A7A" stroke-width="2" stroke-linecap="round" stroke-linejoin="round"/>
<path d="M14 12C14 12.2652 14.1054 12.5196 14.2929 12.7071C14.4804 12.8946 14.7348 13 15 13C15.2652 13 15.5196 12.8946 15.7071 12.7071C15.8946 12.5196 16 12.2652 16 12C16 11.7348 15.8946 11.4804 15.7071 11.2929C15.5196 11.1054 15.2652 11 15 11C14.7348 11 14.4804 11.1054 14.2929 11.2929C14.1054 11.4804 14 11.7348 14 12Z" stroke="#7A7A7A" stroke-width="2" stroke-linecap="round" stroke-linejoin="round"/>
<path d="M14 18C14 18.2652 14.1054 18.5196 14.2929 18.7071C14.4804 18.8946 14.7348 19 15 19C15.2652 19 15.5196 18.8946 15.7071 18.7071C15.8946 18.5196 16 18.2652 16 18C16 17.7348 15.8946 17.4804 15.7071 17.2929C15.5196 17.1054 15.2652 17 15 17C14.7348 17 14.4804 17.1054 14.2929 17.2929C14.1054 17.4804 14 17.7348 14 18Z" stroke="#7A7A7A" stroke-width="2" stroke-linecap="round" stroke-linejoin="round"/>
</svg>
