<svg width="22" height="24" viewBox="0 0 22 24" fill="none" xmlns="http://www.w3.org/2000/svg">
<path d="M1.75 12.125C1.75 13.3438 1.99007 14.5507 2.45649 15.6768C2.92292 16.8028 3.60657 17.826 4.46841 18.6878C5.33026 19.5497 6.35342 20.2333 7.47947 20.6998C8.60552 21.1662 9.81242 21.4063 11.0313 21.4063C12.2501 21.4063 13.457 21.1662 14.583 20.6998C15.7091 20.2333 16.7322 19.5497 17.5941 18.6878C18.4559 17.826 19.1396 16.8028 19.606 15.6768C20.0724 14.5507 20.3125 13.3438 20.3125 12.125C20.3125 9.66346 19.3347 7.30274 17.5941 5.56217C15.8535 3.82159 13.4928 2.84375 11.0313 2.84375C8.56971 2.84375 6.20899 3.82159 4.46841 5.56217C2.72784 7.30274 1.75 9.66346 1.75 12.125Z" stroke="#696969" stroke-width="2" stroke-linecap="round" stroke-linejoin="round"/>
<path d="M11 8H11.01" stroke="#696969" stroke-width="2" stroke-linecap="round" stroke-linejoin="round"/>
<path d="M10.0833 11H11V15H11.9166" stroke="#696969" stroke-width="2" stroke-linecap="round" stroke-linejoin="round"/>
</svg>
