<svg width="24" height="24" viewBox="0 0 24 24" fill="none" xmlns="http://www.w3.org/2000/svg">
<g clip-path="url(#clip0_1883_1788)">
<path d="M19 17.9999C19.9283 17.9999 20.8185 17.6312 21.4749 16.9748C22.1313 16.3184 22.5 15.4282 22.5 14.4999C22.5 13.5717 22.1313 12.6814 21.4749 12.025C20.8185 11.3687 19.9283 10.9999 19 10.9999H18C18.397 9.23192 17.715 7.40692 16.212 6.21292C14.709 5.01992 12.612 4.63792 10.712 5.21292C8.81201 5.78792 7.39701 7.23192 7.00001 8.99992C4.80101 8.91192 2.84501 10.3259 2.33401 12.3729C1.82201 14.4199 2.89801 16.5269 4.90001 17.3999" stroke="#B38D1A" stroke-width="2" stroke-linecap="round" stroke-linejoin="round"/>
<path d="M8 16C8 15.7348 8.10536 15.4804 8.29289 15.2929C8.48043 15.1054 8.73478 15 9 15H15C15.2652 15 15.5196 15.1054 15.7071 15.2929C15.8946 15.4804 16 15.7348 16 16V19C16 19.2652 15.8946 19.5196 15.7071 19.7071C15.5196 19.8946 15.2652 20 15 20H9C8.73478 20 8.48043 19.8946 8.29289 19.7071C8.10536 19.5196 8 19.2652 8 19V16Z" stroke="#B38D1A" stroke-width="2" stroke-linecap="round" stroke-linejoin="round"/>
<path d="M10 15V13C10 12.4696 10.2107 11.9609 10.5858 11.5858C10.9609 11.2107 11.4696 11 12 11C12.5304 11 13.0391 11.2107 13.4142 11.5858C13.7893 11.9609 14 12.4696 14 13V15" stroke="#B38D1A" stroke-width="2" stroke-linecap="round" stroke-linejoin="round"/>
</g>
<defs>
<clipPath id="clip0_1883_1788">
<rect width="24" height="24" fill="white"/>
</clipPath>
</defs>
</svg>
